<?xml version="1.0" encoding="utf-8"?>
<!-- Generator: Adobe Illustrator 15.0.2, SVG Export Plug-In . SVG Version: 6.00 Build 0)  -->
<!DOCTYPE svg PUBLIC "-//W3C//DTD SVG 1.1//EN" "http://www.w3.org/Graphics/SVG/1.1/DTD/svg11.dtd">
<svg version="1.1" id="M" xmlns="http://www.w3.org/2000/svg" xmlns:xlink="http://www.w3.org/1999/xlink" x="0px" y="0px"
	 width="300px" height="193px" viewBox="0 0 300 193" enable-background="new 0 0 300 193" xml:space="preserve">
<g>
	<radialGradient id="SVGID_1_" cx="150" cy="98.1875" r="119.0863" gradientUnits="userSpaceOnUse">
		<stop  offset="0" style="stop-color:#F6971D"/>
		<stop  offset="0.9" style="stop-color:#BF331C"/>
	</radialGradient>
	<path fill="url(#SVGID_1_)" d="M235.695,188c-0.402-6.686-1.719-13.299-3.734-19.258c-6.678-16.823-18.428-30.359-35.246-38.834
		c-5.008-1.108-37.094-2.175-37.094-2.175l-9.603-95.627l-9.631,95.559c0,0-30.741,0.834-37.104,2.243
		c-16.788,8.46-28.555,21.978-35.246,38.834c-2.013,5.95-3.334,12.563-3.736,19.258H7.533L76.438,60h41.566L150,8.376L181.994,60
		h41.566l68.906,128H235.695z"/>
	<path d="M226.25,55.501L184.5,55.5L150-0.166L115.5,55.5H73.75L0,192.5h68.666c0-7.768,1.277-15.23,3.598-22.208
		c6.307-15.697,17.506-28.541,32.543-36.112c4.893-1.088,15.862-1.68,20.209-1.68H141.5l8.5-63l8.5,63h16.482
		c4.348,0,15.316,0.592,20.209,1.68c15.037,7.571,26.236,20.415,32.543,36.112c2.32,6.978,3.596,14.44,3.596,22.208H300
		L226.25,55.501z M101.76,125.638c-18.037,9.08-30.77,23.536-37.949,41.554c-1.777,5.332-2.988,10.645-3.634,16.309h-45.11
		L76.582,69.226l36.51,54.839C109.264,124.387,105.16,124.882,101.76,125.638z M174.668,123.5H162.33L150,32.106L137.668,123.5
		h-12.338l-39.281-59h34.46L150,16.918L179.488,64.5l34.461,0.001L174.668,123.5z M236.188,167.191
		c-7.121-17.87-19.75-32.392-37.949-41.554c-3.279-0.729-7.391-1.232-11.334-1.567l36.514-54.844L284.934,183.5H239.82
		C239.176,177.859,237.971,172.544,236.188,167.191z"/>
	<path fill="#FFFFFF" d="M226.25,55.501L184.5,55.5L150-0.166L115.5,55.5H73.75L0,192.5h68.666c0-7.768,1.277-15.23,3.598-22.208
		c6.307-15.697,17.506-28.541,32.543-36.112c4.897-1.089,15.872-1.68,20.209-1.68c5.361,0,16.834,0,18.25,0L150,82.588l6.734,49.912
		c2.475,0,10.037,0,18.248,0c4.332,0,15.309,0.59,20.209,1.68c15.037,7.571,26.236,20.415,32.543,36.112
		c2.32,6.978,3.596,14.44,3.596,22.208H300L226.25,55.501z M103.283,129.908c-16.788,8.46-28.555,21.978-35.246,38.834
		c-2.013,5.95-3.334,12.563-3.736,19.258H7.533L75.637,61.49l44.372,66.647C115.137,128.357,108.074,128.848,103.283,129.908z
		 M159.658,128L150,56.413L140.342,128c-8.838,0.001-15.924,0.003-16.215,0.007L78.85,60h39.155L150,8.376L181.994,60l39.156,0.001
		l-45.277,68.006C175.58,128.003,168.494,128.001,159.658,128z M231.961,168.742c-6.678-16.823-18.428-30.359-35.246-38.834
		c-4.791-1.061-11.852-1.551-16.725-1.771l44.373-66.647L292.467,188h-56.771C235.293,181.314,233.977,174.701,231.961,168.742z"/>
</g>
</svg>
