<?xml version="1.0" encoding="utf-8"?>
<!-- Generator: Adobe Illustrator 15.0.2, SVG Export Plug-In . SVG Version: 6.00 Build 0)  -->
<!DOCTYPE svg PUBLIC "-//W3C//DTD SVG 1.1//EN" "http://www.w3.org/Graphics/SVG/1.1/DTD/svg11.dtd">
<svg version="1.1" id="C" xmlns="http://www.w3.org/2000/svg" xmlns:xlink="http://www.w3.org/1999/xlink" x="0px" y="0px"
	 width="300px" height="193px" viewBox="0 0 300 193" enable-background="new 0 0 300 193" xml:space="preserve">
<g>
	<path d="M234.27,190c-0.28-6.858-1.517-13.625-3.688-20.154l-0.063-0.172c-6.776-16.866-18.525-29.894-33.978-37.674l-0.334-0.168
		l-0.364-0.081c-5.171-1.149-16.328-1.751-20.858-1.751h-16.889l-8.095-97.394L141.905,130h-16.889
		c-4.531,0-15.689,0.602-20.86,1.751l-0.364,0.081L103.458,132c-15.452,7.78-27.202,20.808-33.978,37.674l-0.063,0.172
		c-2.172,6.533-3.41,13.299-3.69,20.154H5.022l70.52-131h41.628L150,6.029L182.83,59h41.628l70.52,131H234.27z"/>
	<g>
		<path fill="#FFFFFF" d="M226.25,56.001L184.5,56L150,0.334L115.5,56H73.75L0,193h68.666c0-7.768,1.277-15.23,3.598-22.208
			c6.307-15.697,17.506-28.541,32.543-36.112c4.893-1.088,15.861-1.68,20.209-1.68H141.5l8.5-63l8.5,63h16.482
			c4.348,0,15.316,0.592,20.209,1.68c15.037,7.571,26.236,20.415,32.543,36.112c2.32,6.978,3.596,14.44,3.596,22.208H300
			L226.25,56.001z M102.775,128.984c-17.189,8.657-29.058,22.117-36.147,39.74c-1.953,5.892-3.221,11.844-3.727,18.275H10.044
			L74.698,66.896l40.298,60.527C110.829,127.717,106.696,128.112,102.775,128.984z M172.672,127h-9.936l-12.735-94.394L137.264,127
			h-9.936L84.053,62h34.788L150,11.724L181.16,62l34.789,0.001L172.672,127z M233.37,168.725
			c-7.089-17.621-18.957-31.082-36.147-39.74c-3.947-0.878-8.047-1.267-12.219-1.561l40.299-60.525L289.956,187h-52.861
			C236.591,180.583,235.327,174.629,233.37,168.725z"/>
	</g>
</g>
</svg>
