<?xml version="1.0" encoding="UTF-8" standalone="no"?>
<svg
   xmlns:dc="http://purl.org/dc/elements/1.1/"
   xmlns:cc="http://creativecommons.org/ns#"
   xmlns:rdf="http://www.w3.org/1999/02/22-rdf-syntax-ns#"
   xmlns:svg="http://www.w3.org/2000/svg"
   xmlns="http://www.w3.org/2000/svg"
   xmlns:xlink="http://www.w3.org/1999/xlink"
   version="1.1"
   width="460.60544"
   height="515.67731">
  <defs>
    <linearGradient id="g1">
      <stop offset="0"   style="stop-color:#a72029" />
      <stop offset="0.2" style="stop-color:#dc7725" />
      <stop offset="0.5" style="stop-color:#f7af21" />
      <stop offset="0.8" style="stop-color:#dc7725" />
      <stop offset="1"   style="stop-color:#a72029" />
    </linearGradient>
    <linearGradient
       gradientTransform="translate(-702.69727,-105.11719)"
       gradientUnits="userSpaceOnUse"
       y2="349.64001"
       x2="1135.0391"
       y1="349.64001"
       x1="730.96094"
       id="g2"
       xlink:href="#g1" />
  </defs>
  <path
     d="M 134.04296,0 4.75195,114.38672 68.89062,186.88281 27.91015,223.11328 65.9707,278.13086 0,339.22265 l 116.05468,125.32618 48.07813,-44.52149 66.16992,95.64996 66.16992,-95.64996 48.07808,44.52149 116.0547,-125.32618 -65.9707,-61.09179 38.0606,-55.01758 -40.9805,-36.23047 64.1387,-72.49609 L 326.56253,0 262.38085,72.54297 230.30273,44.18359 198.22461,72.54297 Z m 96.25977,205.77148 41.63867,36.8125 -41.63867,60.1875 -41.63867,-60.1875 z"
     style="fill:#000000" />
  <path
     d="M 132.3164,28.23047 32.98242,116.11328 83.875,173.63672 183.24023,85.78906 Z m 195.97263,0 -50.9238,57.55859 99.3652,87.84766 50.8926,-57.52344 z m -97.9863,42.64843 -170.82617,151.02149 107.64258,13.03711 63.18359,-55.86133 63.18359,55.86133 107.64261,-13.03711 z m -172.04688,160.94532 172.04688,248.69921 172.0469,-248.69921 -107.66604,13.04101 -64.38086,93.0586 -64.38086,-93.0586 z m 19.20899,62.92187 -49.20117,45.5625 88.87695,95.97852 35.49805,-32.87305 z m 305.67579,0 -75.1738,108.66797 35.498,32.87305 88.877,-95.97852 z"
     style="fill:url(#g2)" />
</svg>
