<?xml version="1.0" encoding="UTF-8" standalone="no"?>
<!-- Created with Inkscape (http://www.inkscape.org/) -->

<svg
   xmlns:dc="http://purl.org/dc/elements/1.1/"
   xmlns:cc="http://creativecommons.org/ns#"
   xmlns:rdf="http://www.w3.org/1999/02/22-rdf-syntax-ns#"
   xmlns:svg="http://www.w3.org/2000/svg"
   xmlns="http://www.w3.org/2000/svg"
   xmlns:sodipodi="http://sodipodi.sourceforge.net/DTD/sodipodi-0.dtd"
   xmlns:inkscape="http://www.inkscape.org/namespaces/inkscape"
   width="236.51051"
   height="296.18921"
   viewBox="0 0 62.576742 78.36673"
   version="1.1"
   id="svg8"
   inkscape:version="0.92.4 (5da689c313, 2019-01-14)"
   sodipodi:docname="80.svg">
  <defs
     id="defs2" />
  <sodipodi:namedview
     id="base"
     pagecolor="#ffffff"
     bordercolor="#666666"
     borderopacity="1.0"
     inkscape:pageopacity="0.0"
     inkscape:pageshadow="2"
     inkscape:zoom="2"
     inkscape:cx="115.18438"
     inkscape:cy="156.34753"
     inkscape:document-units="px"
     inkscape:current-layer="svg8"
     showgrid="false"
     showborder="true"
     inkscape:snap-intersection-paths="false"
     inkscape:object-nodes="false"
     inkscape:snap-bbox="true"
     inkscape:snap-global="true"
     showguides="false"
     inkscape:window-width="1920"
     inkscape:window-height="1017"
     inkscape:window-x="-8"
     inkscape:window-y="-8"
     inkscape:window-maximized="1"
     units="px"
     inkscape:pagecheckerboard="true" />
  <metadata
     id="metadata5">
    <rdf:RDF>
      <cc:Work
         rdf:about="">
        <dc:format>image/svg+xml</dc:format>
        <dc:type
           rdf:resource="http://purl.org/dc/dcmitype/StillImage" />
        <dc:title></dc:title>
      </cc:Work>
    </rdf:RDF>
  </metadata>
  <path
     id="path848"
     style="display:inline;opacity:1;fill:#808080;fill-opacity:1;stroke:none;stroke-width:0;stroke-linecap:butt;stroke-linejoin:miter;stroke-miterlimit:4;stroke-dasharray:none;stroke-opacity:0.89949796"
     d="m 39.91609,66.80619 0.0467,-10.40887 c 2.8736,-1.815341 5.774939,-1.71694 7.884448,-0.77723 2.490122,1.109258 3.053962,4.311299 2.623392,6.105049 4.16473,-2.797799 4.71119,-5.787318 4.91333,-9.282311 0.22907,-3.960569 -1.74161,-7.018729 -4.31802,-11.090608 -4.49716,-10.176701 7.88889,-7.852051 5.92005,1.438679 C 62.5235,40.358 64.90787,31.07271 59.63183,26.70092 61.01162,22.091459 57.00863,14.680059 49.4404,17.041399 L 49.66857,8.7372294 41.639242,12.722219 C 39.620257,6.414515 35.521943,3.1678512 31.288372,0 27.054797,3.1678496 22.956485,6.4145134 20.937501,12.722218 l -8.02933,-3.9849904 0.22817,8.3041704 C 5.5681102,14.680058 1.5651212,22.091457 2.9449102,26.700917 -2.3311278,31.07271 0.05324221,40.357997 5.5907512,42.790899 3.6219102,33.500167 16.007961,31.175519 11.510801,41.35222 8.9343912,45.424099 6.9637112,48.482259 7.1927812,52.442828 c 0.20214,3.49499 0.7486,6.484512 4.9133298,9.282311 -0.43057,-1.79375 0.13327,-4.995791 2.62339,-6.105051 2.10951,-0.93971 5.01085,-1.038109 7.88445,0.777232 l 0.0467,10.40887 c 2.26126,5.572958 4.470849,7.682529 8.627721,11.56054 4.156868,-3.878011 6.366459,-5.987582 8.627718,-11.56054 z"
     inkscape:connector-curvature="0"
     sodipodi:nodetypes="ccscscccccccccccccscscccc"
     sodipodi:insensitive="true" />
  <path
     inkscape:connector-curvature="0"
     d="m 58.814069,38.208885 c 1.58506,-2.3639 3.88119,-6.53348 -1.5875,-11.31828 2.26975,-6.11091 -4.64408,-10.40318 -8.46667,-7.54982 9.21815,6.44639 -8.67374,12.26063 -8.72793,12.24618 0.004,0.0303 -1.04835,8.35445 4.6583,14.37301 -1.67303,-0.0348 -3.22575,-0.96984 -4.46318,-2.06255 v 9.32656 c 8.21103,-3.84942 12.15118,3.10166 12.10468,3.24114 2.79198,-7.68194 -1.32029,-11.28262 -2.12554,-12.76423 -0.75919,-1.39687 -2.08764,-3.46608 -2.15468,-6.96782 0.69398,-6.62255 9.10023,-6.0738 10.76252,1.47581 z m -55.0287802,0 c -1.585059,-2.3639 -3.88119194,-6.53348 1.5875,-11.31828 -2.269757,-6.11091 4.6440742,-10.40318 8.4666672,-7.54982 -9.2474762,6.48561 8.719255,12.24866 8.727925,12.24618 -0.0029,0.0189 1.044605,8.15582 -4.658295,14.37301 1.673027,-0.0348 3.225754,-0.96984 4.463182,-2.06255 v 9.32656 c -8.211029,-3.84942 -12.151179,3.10166 -12.104687,3.24114 -2.7919792,-7.68194 1.320299,-11.28262 2.125543,-12.76423 0.759188,-1.39687 2.087644,-3.46608 2.15468,-6.96782 -0.693978,-6.62255 -9.1002332,-6.0738 -10.7625152,1.47581 z"
     style="display:inline;fill:#000000;fill-opacity:1;stroke:none;stroke-width:0.26458332;stroke-linecap:butt;stroke-linejoin:miter;stroke-miterlimit:4;stroke-dasharray:none;stroke-opacity:1"
     id="path4600-6" />
  <path
     inkscape:connector-curvature="0"
     d="m 24.885809,32.057315 4.521303,0.70422 c 1.326899,32.31285 0.481925,29.2834 1.859207,33.94084 1.46036,-4.8023 0.36172,-1.19871 1.77079,-33.94084 l 4.41641,-0.70422 v 33.73438 c -1.32206,3.7169 -3.2791,6.79882 -6.1872,8.92968 -2.426267,-1.74826 -4.432362,-4.7132 -6.329725,-8.92968 z m -9.458854,-20.04218 0.198438,8.86354 c 0.139383,-0.0208 -2.023095,1.52079 -1.74719,2.44739 0.900702,3.02492 10.981232,6.73414 17.388116,6.79365 7.21031,0.067 17.4588,-4.60303 17.15938,-6.74688 -0.13833,-0.99044 -1.38104,-2.49416 -1.38104,-2.49416 l 0.19844,-8.86354 -5.15937,2.71197 c -0.86048,3.87078 -2.74522,6.87903 -6.94532,7.9375 -0.31179,-2.96302 -0.74044,-5.91435 4.10105,-9.3927 -1.7338,-4.05341 -3.96921,-7.86078 -7.97314,-10.51719 -3.868721,2.98036 -6.842745,6.30763 -7.901864,10.51719 4.800433,3.48299 4.022152,6.41227 4.299479,9.3927 -5.129932,-1.30456 -6.767432,-4.35535 -7.342187,-7.9375 z"
     style="display:inline;fill:#00000f;fill-opacity:1;stroke:none;stroke-width:0.26458332px;stroke-linecap:butt;stroke-linejoin:miter;stroke-opacity:1"
     id="path4684" />
</svg>
